<svg data-v-423bf9ae="" xmlns="http://www.w3.org/2000/svg" viewBox="0 0 351 90" class="iconLeft"><!----><!----><!----><g data-v-423bf9ae="" id="727a7c8b-aac5-4616-b702-25f0d6cd64c9" fill="black" transform="matrix(4.735595867300924,0,0,4.735595867300924,93.32691519359003,4.723755652985382)"><path d="M4.30 12.46L4.30 12.46Q2.45 12.46 1.46 11.22L1.46 11.22L1.46 11.22Q0.48 9.98 0.48 7.49L0.48 7.49L0.48 7.49Q0.48 5.00 1.46 3.76L1.46 3.76L1.46 3.76Q2.45 2.52 4.30 2.52L4.30 2.52L4.30 2.52Q5.88 2.52 6.85 3.46L6.85 3.46L6.85 3.46Q7.83 4.40 7.83 6.26L7.83 6.26L5.99 6.26L5.99 6.26Q5.99 5.18 5.54 4.62L5.54 4.62L5.54 4.62Q5.08 4.06 4.30 4.06L4.30 4.06L4.30 4.06Q3.32 4.06 2.82 4.86L2.82 4.86L2.82 4.86Q2.32 5.67 2.32 7.14L2.32 7.14L2.32 7.84L2.32 7.84Q2.32 9.31 2.83 10.12L2.83 10.12L2.83 10.12Q3.35 10.92 4.35 10.92L4.35 10.92L4.35 10.92Q5.15 10.92 5.61 10.37L5.61 10.37L5.61 10.37Q6.08 9.81 6.08 8.74L6.08 8.74L7.83 8.74L7.83 8.74Q7.83 10.56 6.86 11.51L6.86 11.51L6.86 11.51Q5.89 12.46 4.30 12.46L4.30 12.46ZM11.02 12.46L11.02 12.46Q10.11 12.46 9.58 11.89L9.58 11.89L9.58 11.89Q9.06 11.33 9.06 10.09L9.06 10.09L9.06 4.93L10.74 4.93L10.74 9.63L10.74 9.63Q10.74 10.33 10.98 10.63L10.98 10.63L10.98 10.63Q11.21 10.93 11.70 10.93L11.70 10.93L11.70 10.93Q12.19 10.93 12.52 10.52L12.52 10.52L12.52 10.52Q12.85 10.11 12.85 9.49L12.85 9.49L12.85 4.93L14.53 4.93L14.53 12.29L13.13 12.29L12.96 11.38L12.88 11.38L12.88 11.38Q12.56 11.86 12.10 12.16L12.10 12.16L12.10 12.16Q11.63 12.46 11.02 12.46L11.02 12.46ZM16.07 12.29L16.07 4.93L17.47 4.93L17.67 6.01L17.75 6.01L17.75 6.01Q17.93 5.45 18.23 5.10L18.23 5.10L18.23 5.10Q18.52 4.76 19.03 4.76L19.03 4.76L19.03 4.76Q19.29 4.76 19.49 4.81L19.49 4.81L19.49 4.81Q19.68 4.86 19.73 4.87L19.73 4.87L19.73 6.50L19.12 6.50L19.12 6.50Q18.51 6.50 18.13 6.89L18.13 6.89L18.13 6.89Q17.75 7.28 17.75 8.19L17.75 8.19L17.75 12.29L16.07 12.29ZM20.52 12.29L20.52 2.17L22.20 2.17L22.20 12.29L20.52 12.29ZM24.67 14.84L24.67 14.84Q24.23 14.84 23.91 14.79L23.91 14.79L23.91 14.79Q23.58 14.74 23.58 14.71L23.58 14.71L23.58 13.43L24.33 13.43L24.33 13.43Q24.71 13.43 25.02 13.15L25.02 13.15L25.02 13.15Q25.33 12.87 25.47 12.29L25.47 12.29L23.02 4.93L24.79 4.93L25.90 8.39L25.90 8.39Q26.01 8.74 26.14 9.41L26.14 9.41L26.14 9.41Q26.26 10.08 26.29 10.30L26.29 10.30L26.35 10.30L26.35 10.30Q26.38 10.09 26.49 9.44L26.49 9.44L26.49 9.44Q26.60 8.79 26.70 8.40L26.70 8.40L27.61 4.93L29.29 4.93L27.27 11.91L27.27 11.91Q26.88 13.27 26.26 14.06L26.26 14.06L26.26 14.06Q25.65 14.84 24.67 14.84L24.67 14.84ZM32.54 12.29L35.63 2.69L37.72 2.69L40.81 12.29L38.98 12.29L38.39 10.40L34.85 10.40L34.27 12.29L32.54 12.29ZM35.34 8.81L37.90 8.81L36.93 5.60L36.93 5.60Q36.83 5.29 36.75 4.86L36.75 4.86L36.75 4.86Q36.67 4.42 36.65 4.30L36.65 4.30L36.60 4.30L36.60 4.30Q36.57 4.44 36.48 4.88L36.48 4.88L36.48 4.88Q36.40 5.32 36.32 5.60L36.32 5.60L35.34 8.81ZM41.59 14.71L41.59 4.93L42.99 4.93L43.16 5.84L43.23 5.84L43.23 5.84Q43.50 5.31 43.93 5.03L43.93 5.03L43.93 5.03Q44.37 4.76 44.90 4.76L44.90 4.76L44.90 4.76Q46.02 4.76 46.64 5.72L46.64 5.72L46.64 5.72Q47.26 6.68 47.26 8.62L47.26 8.62L47.26 8.62Q47.26 10.54 46.64 11.50L46.64 11.50L46.64 11.50Q46.02 12.46 44.98 12.46L44.98 12.46L44.98 12.46Q44.42 12.46 43.98 12.21L43.98 12.21L43.98 12.21Q43.54 11.97 43.34 11.54L43.34 11.54L43.27 11.54L43.27 14.71L41.59 14.71ZM44.39 10.93L44.39 10.93Q44.98 10.93 45.25 10.42L45.25 10.42L45.25 10.42Q45.51 9.91 45.51 8.88L45.51 8.88L45.51 8.34L45.51 8.34Q45.51 7.31 45.25 6.80L45.25 6.80L45.25 6.80Q44.98 6.29 44.39 6.29L44.39 6.29L44.39 6.29Q43.81 6.29 43.54 6.80L43.54 6.80L43.54 6.80Q43.27 7.31 43.27 8.34L43.27 8.34L43.27 8.85L43.27 8.85Q43.27 9.88 43.54 10.41L43.54 10.41L43.54 10.41Q43.81 10.93 44.39 10.93L44.39 10.93ZM48.61 14.71L48.61 4.93L50.01 4.93L50.18 5.84L50.25 5.84L50.25 5.84Q50.51 5.31 50.95 5.03L50.95 5.03L50.95 5.03Q51.38 4.76 51.91 4.76L51.91 4.76L51.91 4.76Q53.03 4.76 53.66 5.72L53.66 5.72L53.66 5.72Q54.28 6.68 54.28 8.62L54.28 8.62L54.28 8.62Q54.28 10.54 53.66 11.50L53.66 11.50L53.66 11.50Q53.03 12.46 52.00 12.46L52.00 12.46L52.00 12.46Q51.44 12.46 51.00 12.21L51.00 12.21L51.00 12.21Q50.55 11.97 50.36 11.54L50.36 11.54L50.29 11.54L50.29 14.71L48.61 14.71ZM51.41 10.93L51.41 10.93Q52.00 10.93 52.26 10.42L52.26 10.42L52.26 10.42Q52.53 9.91 52.53 8.88L52.53 8.88L52.53 8.34L52.53 8.34Q52.53 7.31 52.26 6.80L52.26 6.80L52.26 6.80Q52.00 6.29 51.41 6.29L51.41 6.29L51.41 6.29Q50.82 6.29 50.55 6.80L50.55 6.80L50.55 6.80Q50.29 7.31 50.29 8.34L50.29 8.34L50.29 8.85L50.29 8.85Q50.29 9.88 50.55 10.41L50.55 10.41L50.55 10.41Q50.82 10.93 51.41 10.93L51.41 10.93Z"></path></g><!----><g data-v-423bf9ae="" id="55673c80-f294-4dee-b266-97bf64e86fc6" transform="matrix(1.8,0,0,1.8,-52,-45)" stroke="none" fill="black"><path style="text-indent:0;text-transform:none;block-progression:tb" d="M43 25c-4.934 0-9 4.066-9 9v10c0 1.714-1.286 3-3 3h-2v6h2c1.714 0 3 1.286 3 3v10c0 4.934 4.066 9 9 9h4v-6h-4c-1.714 0-3-1.286-3-3V56c0-2.305-.895-4.4-2.344-6C39.096 48.402 40 46.297 40 44V34c0-1.714 1.286-3 3-3h4v-6h-4zm10 0v6h4c1.714 0 3 1.286 3 3v10c0 2.297.904 4.402 2.344 6C60.894 51.6 60 53.695 60 56v10c0 1.714-1.286 3-3 3h-4v6h4c4.934 0 9-4.066 9-9V56c0-1.714 1.286-3 3-3h2v-6h-2c-1.714 0-3-1.286-3-3V34c0-4.934-4.066-9-9-9h-4z" overflow="visible" color="#000"></path></g><!----></svg>